# xmcd CD database file
#
# Track frame offsets:
#	150
#	23833
#	42503
#	67282
#	85391
#	100148
#	129079
#	152610
#
# Disc length: 2272 seconds
#
# Revision: 0
# Processed by: cddbd v1.5.2PL0 Copyright (c) Steve Scherf et al.
# Submitted via: CDex 1.70beta2
#
DISCID=6308de08
DTITLE=Patrick And Debra - Echo Avenue
DYEAR=2012
DGENRE=Jazz
TTITLE0=Perdido
TTITLE1=The Girl from Ipanema
TTITLE2=Somewhere beyond the Sea
TTITLE3=Moonlight In Vermont
TTITLE4=Why Don't You Do Right
TTITLE5=When I Fall in Love
TTITLE6=What Is This Thing Called Love?
TTITLE7=Baby What You Want Me to Do
EXTD=YEAR: 2012
EXTT0=
EXTT1=
EXTT2=
EXTT3=
EXTT4=
EXTT5=
EXTT6=
EXTT7=
PLAYORDER=
